<svg width="122" height="122" viewBox="0 0 122 122" fill="none" xmlns="http://www.w3.org/2000/svg">
<path fill-rule="evenodd" clip-rule="evenodd" d="M92.4062 1C109.75 1 121 12.25 121 29.5938V92.4062C121 109.75 109.75 121 92.4062 121H29.5938C12.25 121 1 109.75 1 92.4062V29.5938C1 12.25 12.25 1 29.5938 1H92.4062Z" fill="#FFFAED"/>
<path fill-rule="evenodd" clip-rule="evenodd" d="M92.4062 1C109.75 1 121 12.25 121 29.5938V92.4062C121 109.75 109.75 121 92.4062 121H29.5938C12.25 121 1 109.75 1 92.4062V29.5938C1 12.25 12.25 1 29.5938 1H92.4062Z" stroke="#A4A4A4" stroke-width="0.5"/>
<path fill-rule="evenodd" clip-rule="evenodd" d="M73.045 70.2795C73.0528 70.2823 73.0605 70.2852 73.0682 70.288C73.0682 70.288 73.0687 70.2852 73.0697 70.2795C79.4456 70.2453 90.0058 62.1888 90.0058 62.1888C90.0058 62.1888 94.181 59.0962 97.1227 54.7868C100.059 50.4841 101.508 44.6303 97.7658 39.2858C90.4928 28.8985 79.7594 35.5594 79.143 35.9545C78.7003 35.3712 70.918 25.421 60.5123 32.6676C55.1583 36.3963 54.5023 42.3908 55.7773 47.4416C57.0544 52.5005 59.9089 56.842 59.9089 56.842C59.9089 56.842 67.0479 68.0428 73.022 70.2709C73.021 70.2767 73.0205 70.2795 73.0205 70.2795C73.0287 70.2795 73.0368 70.2795 73.045 70.2795Z" fill="url(#paint0_linear_4_22)" fill-opacity="0.8"/>
<path fill-rule="evenodd" clip-rule="evenodd" d="M50.0358 83.398C50.0409 83.3949 50.046 83.3918 50.0511 83.3887C50.0511 83.3887 50.0497 83.3872 50.0469 83.384C52.9177 79.7506 53.1185 70.0823 53.1185 70.0823C53.1185 70.0823 53.2506 66.302 52.131 62.6664C51.0128 59.0367 48.3372 55.5437 43.5987 55.2279C34.389 54.6146 33.3152 63.7443 33.2607 64.2744C32.7281 64.2594 23.5363 64.1345 22.9445 73.3456C22.6401 78.085 25.755 81.1927 29.2081 82.7741C32.6667 84.358 36.4321 84.7195 36.4321 84.7195C36.4321 84.7195 46.0441 85.7801 50.0205 83.4071C50.0233 83.4103 50.0247 83.4119 50.0247 83.4119C50.0284 83.4073 50.0321 83.4026 50.0358 83.398Z" fill="url(#paint1_linear_4_22)" fill-opacity="0.8"/>
<defs>
<linearGradient id="paint0_linear_4_22" x1="57.672" y1="28" x2="50.8603" y2="66.3427" gradientUnits="userSpaceOnUse">
<stop stop-color="#FEACC6"/>
<stop offset="1" stop-color="#FF281B"/>
</linearGradient>
<linearGradient id="paint1_linear_4_22" x1="19" y1="72.8272" x2="37.7386" y2="94.1892" gradientUnits="userSpaceOnUse">
<stop stop-color="#FEACC6"/>
<stop offset="1" stop-color="#FF281B"/>
</linearGradient>
</defs>
</svg>
